<?xml version="1.0" standalone="no"?>
<!DOCTYPE svg PUBLIC "-//W3C//DTD SVG 20010904//EN"
 "http://www.w3.org/TR/2001/REC-SVG-20010904/DTD/svg10.dtd">
<svg version="1.0" xmlns="http://www.w3.org/2000/svg"
 width="752.000000pt" height="752.000000pt" viewBox="0 0 752.000000 752.000000"
 preserveAspectRatio="xMidYMid meet">
<metadata>
Created by potrace 1.11, written by Peter Selinger 2001-2013
</metadata>
<g transform="translate(0.000000,752.000000) scale(0.100000,-0.100000)"
fill="#000000" stroke="none">
<path d="M3539 7516 c-2 -2 -47 -7 -99 -10 -97 -7 -112 -9 -235 -27 -116 -18
-123 -19 -198 -35 -39 -9 -81 -18 -92 -19 -11 -2 -54 -12 -95 -23 -521 -138
-988 -372 -1410 -708 -118 -94 -420 -383 -490 -469 -14 -17 -46 -55 -71 -85
-96 -116 -176 -229 -304 -430 -119 -187 -281 -538 -363 -790 -30 -92 -67 -230
-91 -335 -31 -139 -37 -174 -56 -315 -3 -25 -8 -58 -10 -75 -27 -189 -27 -662
0 -875 21 -163 59 -373 86 -473 6 -23 13 -49 14 -57 8 -35 88 -289 107 -335
85 -215 187 -431 258 -550 16 -27 37 -63 46 -80 43 -78 194 -293 290 -415 59
-74 186 -214 283 -311 213 -212 387 -354 624 -507 72 -46 354 -206 367 -208 3
0 41 -17 85 -38 171 -80 449 -182 605 -221 215 -54 443 -93 655 -112 165 -15
641 -8 756 12 13 2 60 9 105 15 44 6 89 12 100 14 350 71 616 150 839 250 17
8 53 24 80 36 104 47 253 125 343 180 26 16 67 41 92 56 200 121 445 319 650
524 191 190 195 195 328 366 221 287 394 592 525 929 60 157 119 333 133 401
1 6 11 49 22 95 27 109 32 136 56 289 35 226 41 318 41 585 0 208 -6 324 -21
440 -14 111 -36 242 -59 345 -14 63 -27 126 -30 140 -13 59 -98 327 -125 395
-28 70 -53 131 -61 150 -28 69 -132 282 -168 345 -24 41 -52 89 -61 106 -54
93 -207 317 -281 408 -197 245 -443 484 -679 663 -542 409 -1182 665 -1845
738 -33 4 -71 9 -85 12 -28 5 -556 14 -561 9z"/>
</g>
</svg>
